<?xml version="1.0" encoding="UTF-8"?>
<svg version="1.1" xmlns="http://www.w3.org/2000/svg" width="1000" height="1000" >
<path d="M0 0 C14.68102072 11.72180041 26.64634465 27.76623278 30.74414062 46.39257812 C30.7707073 48.05903304 30.77520867 49.72620105 30.74414062 51.39257812 C31.40534912 51.38734131 32.06655762 51.38210449 32.74780273 51.37670898 C35.72573914 51.35600157 38.70366044 51.342938 41.68164062 51.33007812 C43.24301758 51.31750977 43.24301758 51.31750977 44.8359375 51.3046875 C46.3199707 51.29985352 46.3199707 51.29985352 47.83398438 51.29492188 C48.75042725 51.28968506 49.66687012 51.28444824 50.61108398 51.27905273 C52.74414062 51.39257812 52.74414062 51.39257812 53.74414062 52.39257812 C53.84324623 54.258936 53.87213324 56.12906007 53.87353516 57.99804688 C53.87668732 59.19598877 53.87983948 60.39393066 53.88308716 61.62817383 C53.88005081 63.58436646 53.88005081 63.58436646 53.87695312 65.58007812 C53.87762623 66.92146828 53.8785963 68.26285831 53.87985229 69.60424805 C53.88132898 72.41879434 53.87917566 75.23330895 53.87451172 78.04785156 C53.86881443 81.66298443 53.87209359 85.27804307 53.87808418 88.89317322 C53.88169059 91.66402754 53.88055084 94.43486415 53.87795639 97.20571899 C53.87696096 99.18947396 53.88000803 101.1732296 53.88308716 103.15698242 C53.87835892 104.95389526 53.87835892 104.95389526 53.87353516 106.78710938 C53.87273956 107.84776611 53.87194397 108.90842285 53.87112427 110.0012207 C53.74414062 112.39257812 53.74414062 112.39257812 52.74414062 113.39257812 C51.25542203 113.47927245 49.76269563 113.49961306 48.27148438 113.49023438 C47.37236328 113.48701172 46.47324219 113.48378906 45.546875 113.48046875 C44.60134766 113.47208984 43.65582031 113.46371094 42.68164062 113.45507812 C41.25754883 113.44831055 41.25754883 113.44831055 39.8046875 113.44140625 C37.45110997 113.42957923 35.09765585 113.41309838 32.74414062 113.39257812 C32.96493299 121.87100494 33.18103386 128.97752964 37.74414062 136.39257812 C38.07414063 137.38257813 38.40414062 138.37257813 38.74414062 139.39257812 C41.02637208 140.5229282 41.02637208 140.5229282 43.74414062 141.39257812 C47.07747396 142.72591146 50.41080729 144.05924479 53.74414062 145.39257812 C53.76726855 153.19833008 53.78505801 161.00407407 53.7959528 168.80985165 C53.80118064 172.43403772 53.8082765 176.05820043 53.81958008 179.68237305 C53.83041247 183.17717787 53.8364182 186.67196016 53.83901787 190.16678047 C53.84177613 192.15497201 53.8495875 194.14315444 53.85743713 196.1313324 C53.85751266 197.33250198 53.8575882 198.53367157 53.85766602 199.77124023 C53.85988663 200.83491318 53.86210724 201.89858612 53.86439514 202.99449158 C53.74414062 205.39257812 53.74414062 205.39257812 52.74414062 206.39257812 C34.23830352 208.29436376 15.70313219 200.95156042 1.33203125 189.69921875 C-7.13712128 182.73013752 -13.95384881 175.04422739 -19.25585938 165.39257812 C-19.72636719 164.54824219 -20.196875 163.70390625 -20.68164062 162.83398438 C-23.65827052 157.2056075 -25.66673488 151.54699091 -27.25585938 145.39257812 C-27.59420303 144.1751442 -27.93254669 142.95771027 -28.28114319 141.7033844 C-29.27728992 137.69641117 -29.51322531 133.94273437 -29.52709961 129.80249023 C-29.53493973 128.73495766 -29.53493973 128.73495766 -29.54293823 127.64585876 C-29.55310088 126.11599339 -29.55894497 124.58609419 -29.56081963 123.05619621 C-29.56451435 120.62971565 -29.5813228 118.20363257 -29.60157776 115.77723694 C-29.65670738 108.88403727 -29.68768451 101.99078178 -29.7121582 95.09741211 C-29.72807572 90.86702218 -29.75832961 86.63691971 -29.79692268 82.40667915 C-29.80852626 80.80203881 -29.81450263 79.19734702 -29.81460381 77.59266472 C-29.81479694 75.34589625 -29.83313884 73.09991668 -29.85522461 70.85327148 C-29.86029526 69.57834335 -29.86536591 68.30341522 -29.87059021 66.98985291 C-30.59507452 60.22531168 -33.48520234 55.27418067 -38.25585938 50.39257812 C-43.53003679 46.62530854 -49.01547174 46.7467071 -55.25585938 47.39257812 C-61.29422002 49.07539995 -64.86539641 52.24915134 -68.25585938 57.39257812 C-70.87311826 62.21956423 -70.69894831 67.34249138 -70.88085938 72.70507812 C-70.91953125 73.63642578 -70.95820312 74.56777344 -70.99804688 75.52734375 C-71.0919225 77.81556219 -71.17760447 80.10378108 -71.25585938 82.39257812 C-70.50377197 82.38734131 -69.75168457 82.38210449 -68.97680664 82.37670898 C-65.59066595 82.35600586 -62.20453853 82.34293936 -58.81835938 82.33007812 C-57.63435547 82.32169922 -56.45035156 82.31332031 -55.23046875 82.3046875 C-54.10576172 82.30146484 -52.98105469 82.29824219 -51.82226562 82.29492188 C-50.78013916 82.28968506 -49.7380127 82.28444824 -48.66430664 82.27905273 C-46.25585938 82.39257812 -46.25585938 82.39257812 -45.25585938 83.39257812 C-45.15675377 85.258936 -45.12786676 87.12906007 -45.12646484 88.99804688 C-45.12331268 90.19598877 -45.12016052 91.39393066 -45.11691284 92.62817383 C-45.11994919 94.58436646 -45.11994919 94.58436646 -45.12304688 96.58007812 C-45.12237377 97.92146828 -45.1214037 99.26285831 -45.12014771 100.60424805 C-45.11867102 103.41879434 -45.12082434 106.23330895 -45.12548828 109.04785156 C-45.13118557 112.66298443 -45.12790641 116.27804307 -45.12191582 119.89317322 C-45.11830941 122.66402754 -45.11944916 125.43486415 -45.12204361 128.20571899 C-45.12303904 130.18947396 -45.11999197 132.1732296 -45.11691284 134.15698242 C-45.12164108 135.95389526 -45.12164108 135.95389526 -45.12646484 137.78710938 C-45.12726044 138.84776611 -45.12805603 139.90842285 -45.12887573 141.0012207 C-45.25585938 143.39257812 -45.25585938 143.39257812 -46.25585938 144.39257812 C-48.10955549 144.47995458 -49.96653478 144.49955966 -51.82226562 144.49023438 C-52.94697266 144.48701172 -54.07167969 144.48378906 -55.23046875 144.48046875 C-56.41447266 144.47208984 -57.59847656 144.46371094 -58.81835938 144.45507812 C-60.00623047 144.45056641 -61.19410156 144.44605469 -62.41796875 144.44140625 C-65.36398163 144.42957487 -68.30989618 144.41309099 -71.25585938 144.39257812 C-71.23845703 145.03614258 -71.22105469 145.67970703 -71.203125 146.34277344 C-70.94901898 162.62370929 -77.97497917 177.6913683 -89.13085938 189.43554688 C-99.49326577 198.978866 -113.24493705 206.65406886 -127.57617188 206.46679688 C-128.64367676 206.45608154 -129.71118164 206.44536621 -130.81103516 206.43432617 C-131.61782715 206.42054932 -132.42461914 206.40677246 -133.25585938 206.39257812 C-133.37307407 186.73752636 -133.46103323 167.0825463 -133.51492023 147.42721653 C-133.54061484 138.29925865 -133.57559636 129.17151894 -133.63305664 120.04370117 C-133.68316129 112.08050739 -133.71521379 104.11747174 -133.72630185 96.15412468 C-133.73277523 91.9442055 -133.74780272 87.73473841 -133.78450966 83.52496529 C-134.0673556 49.75764572 -134.0673556 49.75764572 -128.25585938 36.39257812 C-127.98711313 35.76446291 -127.71836689 35.13634769 -127.44147682 34.48919868 C-118.28029235 13.25825194 -101.9637992 -1.93208195 -80.90039062 -11.25195312 C-54.01025408 -21.25289351 -23.09790673 -17.29043304 0 0 Z " fill="#333347" transform="translate(670.255859375,381.607421875)"/>
<path d="M0 0 C1.19794189 -0.00315216 2.39588379 -0.00630432 3.63012695 -0.009552 C4.93425537 -0.00752777 6.23838379 -0.00550354 7.58203125 -0.00341797 C8.9234214 -0.00409107 10.26481144 -0.00506115 11.60620117 -0.00631714 C14.42074746 -0.00779382 17.23526207 -0.00564051 20.04980469 -0.00097656 C23.66493756 0.00472073 27.2799962 0.00144156 30.89512634 -0.00454903 C33.66598067 -0.00815544 36.43681727 -0.00701569 39.20767212 -0.00442123 C41.19142708 -0.0034258 43.17518272 -0.00647288 45.15893555 -0.009552 C46.35687744 -0.00639984 47.55481934 -0.00324768 48.7890625 0 C49.84971924 0.00079559 50.91037598 0.00159119 52.00317383 0.00241089 C54.39453125 0.12939453 54.39453125 0.12939453 55.39453125 1.12939453 C55.50367108 3.71936022 55.54875708 6.28363993 55.55224609 8.87451172 C55.55732681 9.68592621 55.56240753 10.4973407 55.56764221 11.33334351 C55.57837045 13.10180316 55.58698093 14.8702766 55.59376144 16.6387558 C55.60551757 19.43789337 55.62496292 22.23687435 55.6468811 25.03594971 C55.7085996 32.99673243 55.76251951 40.95750118 55.79589844 48.91845703 C55.8168459 53.78267169 55.85215443 58.64660459 55.89665604 63.51065826 C55.9108209 65.36535575 55.91953957 67.22010313 55.92271042 69.07485199 C55.92761992 71.6724339 55.95078001 74.26926906 55.97802734 76.86669922 C55.97502121 77.63261383 55.97201508 78.39852844 55.96891785 79.18765259 C56.03876528 83.67215616 56.59782186 86.58007067 59.39453125 90.12939453 C63.55889534 92.90563726 66.85664159 92.26657776 71.70703125 92.00439453 C73.67712065 91.20919105 73.67712065 91.20919105 74.48106384 88.59822083 C75.53347304 84.60177316 75.69434087 80.85356791 75.69750977 76.75317383 C75.71016876 75.52531914 75.71016876 75.52531914 75.7230835 74.2726593 C75.74875285 71.58297105 75.76097296 68.89339219 75.7734375 66.20361328 C75.78961776 64.33127479 75.80679831 62.4589447 75.82493591 60.58662415 C75.87053179 55.66995106 75.90539267 50.75326676 75.93713379 45.83648682 C75.98910883 37.94887545 76.05398795 30.06138667 76.12534904 22.17392921 C76.1482426 19.41460401 76.1644695 16.65529467 76.18006897 13.8959198 C76.193468 12.21682557 76.20708213 10.53773303 76.22094727 8.85864258 C76.22356064 8.08620209 76.22617401 7.3137616 76.22886658 6.51791382 C76.28088818 1.24303761 76.28088818 1.24303761 77.39453125 0.12939453 C79.26088913 0.03028893 81.13101319 0.00140192 83 0 C84.19794189 -0.00315216 85.39588379 -0.00630432 86.63012695 -0.009552 C87.93425537 -0.00752777 89.23838379 -0.00550354 90.58203125 -0.00341797 C91.9234214 -0.00409107 93.26481144 -0.00506115 94.60620117 -0.00631714 C97.42074746 -0.00779382 100.23526207 -0.00564051 103.04980469 -0.00097656 C106.66493756 0.00472073 110.2799962 0.00144156 113.89512634 -0.00454903 C116.66598067 -0.00815544 119.43681727 -0.00701569 122.20767212 -0.00442123 C124.19142708 -0.0034258 126.17518272 -0.00647288 128.15893555 -0.009552 C129.95584839 -0.00482376 129.95584839 -0.00482376 131.7890625 0 C132.84971924 0.00079559 133.91037598 0.00159119 135.00317383 0.00241089 C137.39453125 0.12939453 137.39453125 0.12939453 138.39453125 1.12939453 C138.49996699 3.08241696 138.53420769 5.03929569 138.54170227 6.99514771 C138.55243523 8.90836319 138.55243523 8.90836319 138.56338501 10.86022949 C138.56622575 12.28735327 138.56893742 13.71447732 138.5715332 15.14160156 C138.57779551 16.634635 138.5844421 18.12766688 138.59144592 19.62069702 C138.61254168 24.54285588 138.6228632 29.46501521 138.6328125 34.38720703 C138.63686 36.08354585 138.64097692 37.77988451 138.64516258 39.47622299 C138.66423759 47.45698851 138.67845569 55.43774472 138.68677455 63.41852868 C138.69651305 72.60896043 138.72273353 81.79914915 138.76327544 90.9894954 C138.79356522 98.10221967 138.80825612 105.21487489 138.81155556 112.32766235 C138.81389429 116.56983002 138.82269741 120.8117388 138.84801674 125.05383682 C138.87152397 129.05776586 138.87544121 133.06126989 138.86525536 137.0652504 C138.86476509 138.52316716 138.87093232 139.98110643 138.8848114 141.43895721 C139.08699983 163.96613193 131.132375 184.01579984 115.58203125 200.37939453 C98.98891244 216.38896329 75.68753914 223.58475537 53.01953125 223.37939453 C51.91536865 223.37117676 50.81120605 223.36295898 49.67358398 223.35449219 C38.56074165 223.20186805 16.99165656 222.72651984 8.39453125 214.12939453 C8.30112691 212.50264675 8.27707954 210.87185402 8.28100586 209.24243164 C8.28108139 208.20142807 8.28115692 207.1604245 8.28123474 206.08787537 C8.28639603 204.95560013 8.29155731 203.82332489 8.296875 202.65673828 C8.29828995 201.50395889 8.2997049 200.3511795 8.30116272 199.16346741 C8.3067812 195.4645839 8.31933683 191.76575989 8.33203125 188.06689453 C8.33704387 185.56624436 8.34160719 183.06559325 8.34570312 180.56494141 C8.35675663 174.41973865 8.37351273 168.27457084 8.39453125 162.12939453 C13.17364412 160.95421124 16.31490859 161.81103648 20.83203125 163.50439453 C34.53417885 168.50698403 48.95836217 169.27679231 62.39453125 163.12939453 C68.25262568 160.20523721 73.6934699 156.54681038 76.140625 150.19189453 C76.62843613 148.52324405 77.02099578 146.82728304 77.39453125 145.12939453 C76.75386719 145.52771484 76.11320312 145.92603516 75.453125 146.33642578 C61.31454662 154.99656843 48.11007514 157.09175167 31.6484375 154.55126953 C18.89613728 151.1173576 7.60754897 142.61570245 0.71484375 131.39501953 C-5.34718816 120.6631927 -6.75958513 111.46599503 -6.73486328 99.34472656 C-6.7366156 98.28217148 -6.73836792 97.21961639 -6.74017334 96.12486267 C-6.74455858 92.62896063 -6.74166685 89.13310954 -6.73828125 85.63720703 C-6.73895494 83.20580028 -6.73992552 80.77439359 -6.74118042 78.34298706 C-6.74265262 73.25746008 -6.74051703 68.17195071 -6.73583984 63.08642578 C-6.73012461 56.55238519 -6.73343589 50.01838551 -6.73941231 43.48434639 C-6.74301528 38.46940804 -6.74188087 33.4544795 -6.73928452 28.43954086 C-6.73861545 26.02886831 -6.73944294 23.61819488 -6.74176407 21.20752335 C-6.74428822 17.85088975 -6.74045421 14.49432383 -6.73486328 11.13769531 C-6.73688751 10.1330574 -6.73891174 9.12841949 -6.74099731 8.09333801 C-6.73817749 7.18493668 -6.73535767 6.27653534 -6.73245239 5.34060669 C-6.73207537 4.54681673 -6.73169834 3.75302677 -6.73130989 2.93518257 C-6.45331592 -1.0539595 -3.30133399 0.00247631 0 0 Z " fill="#333347" transform="translate(382.60546875,432.87060546875)"/>
<path d="M0 0 C1.04067123 0.00142502 2.08134247 0.00285004 3.15354919 0.00431824 C4.33139481 0.00124161 5.50924042 -0.00183502 6.72277832 -0.00500488 C7.99987167 0.00218063 9.27696503 0.00936615 10.59275818 0.01676941 C12.5493058 0.01745674 12.5493058 0.01745674 14.54537964 0.01815796 C17.30691341 0.01972283 20.06831756 0.02801349 22.82981873 0.04142761 C26.37655147 0.05843417 29.92314188 0.06224149 33.46991062 0.06148243 C36.84421235 0.06181905 40.218467 0.07065278 43.59275818 0.07926941 C44.87187576 0.08038223 46.15099335 0.08149506 47.46887207 0.0826416 C48.64356552 0.08902145 49.81825897 0.09540131 51.02854919 0.10197449 C52.06842484 0.10578629 53.10830048 0.10959808 54.1796875 0.11352539 C56.52635193 0.24723816 56.52635193 0.24723816 57.52635193 1.24723816 C57.62907662 3.46040588 57.65991189 5.67691013 57.66438293 7.89245605 C57.66720421 8.5953818 57.67002549 9.29830755 57.67293227 10.02253407 C57.68131584 12.39603035 57.68261976 14.76948021 57.68406677 17.14299011 C57.68873259 18.83793266 57.69387576 20.53287396 57.69946289 22.22781372 C57.71076774 25.88863318 57.71919069 29.54944437 57.72558212 33.21027565 C57.73624903 39.0063341 57.7564937 44.80233387 57.77870178 50.59835815 C57.84065926 67.08423656 57.89454144 83.57011282 57.92771912 100.05607605 C57.94610747 109.1531443 57.97510289 118.2501155 58.01572382 127.34711236 C58.03673643 132.15975022 58.05224279 136.97226602 58.0545311 141.78495216 C58.05669034 146.32154108 58.0726889 150.85787661 58.09892082 155.3943882 C58.106069 157.05188089 58.10823676 158.70940444 58.10481834 160.36690903 C58.07590965 177.06191354 61.08315895 192.5564723 71.29197693 206.21208191 C72.70782087 208.5464322 73.13413697 210.56243336 73.52635193 213.24723816 C72.13357176 213.89962974 70.73695981 214.54384368 69.33885193 215.18473816 C68.56154724 215.5443866 67.78424255 215.90403503 66.98338318 216.27458191 C57.21865506 220.14011021 42.18895046 220.03788384 32.33885193 216.62223816 C30.71014087 215.88238203 29.10360456 215.09125294 27.52635193 214.24723816 C26.69361755 213.83473816 25.86088318 213.42223816 25.00291443 212.99723816 C10.59295793 205.19369249 2.66632019 193.0368915 -1.9143219 177.779953 C-2.44859283 175.93986174 -2.96208124 174.09377023 -3.47364807 172.24723816 C-3.65611241 171.65386721 -3.83857676 171.06049625 -4.02657032 170.44914436 C-4.63865453 167.43456352 -4.60312776 164.55390421 -4.60736084 161.47767639 C-4.6096264 160.79780013 -4.61189195 160.11792387 -4.61422616 159.4174453 C-4.62055382 157.14047745 -4.61973761 154.8635693 -4.61891174 152.58659363 C-4.62190389 150.95380069 -4.62530655 149.32100846 -4.62908936 147.68821716 C-4.63792509 143.25457306 -4.64026721 138.82094825 -4.64090514 134.3872962 C-4.64185431 130.68911348 -4.64553246 126.99093527 -4.64907724 123.29275429 C-4.65721918 114.57266456 -4.6596616 105.85258516 -4.65895081 97.13249207 C-4.65834918 88.1256251 -4.66891856 79.11881786 -4.68469447 70.11196601 C-4.69774756 62.38537592 -4.70313569 54.65880541 -4.7024954 46.93220437 C-4.70223987 42.31443502 -4.70512134 37.69671882 -4.71567345 33.07896042 C-4.72531765 28.74024655 -4.72545908 24.40163706 -4.71815681 20.06291962 C-4.71710657 18.46732303 -4.71949975 16.87172007 -4.72551727 15.27613449 C-4.73317803 13.10490908 -4.72863233 10.93404957 -4.72088623 8.76283264 C-4.721431 7.54573042 -4.72197577 6.3286282 -4.72253704 5.07464409 C-4.40091127 1.42094013 -3.70742217 0.3705524 0 0 Z " fill="#333347" transform="translate(302.47364807128906,369.7527618408203)"/>
</svg>
